<?xml version="1.0" encoding="UTF-8"?>
<svg xmlns="http://www.w3.org/2000/svg" xmlns:xlink="http://www.w3.org/1999/xlink" width="256px" height="px" viewBox="0 0 256 256" version="1.1">
<g id="surface1">
<path style=" stroke:none;fill-rule:nonzero;fill:rgb(13.333334%,12.156863%,12.156863%);fill-opacity:1;" d="M 78.339844 109.152344 C 78.339844 111.953125 78.644531 114.222656 79.171875 115.890625 C 79.777344 117.554688 80.535156 119.371094 81.59375 121.339844 C 81.972656 121.945312 82.125 122.550781 82.125 123.078125 C 82.125 123.835938 81.671875 124.59375 80.6875 125.347656 L 75.917969 128.527344 C 75.238281 128.980469 74.554688 129.210938 73.949219 129.210938 C 73.195312 129.210938 72.4375 128.832031 71.679688 128.148438 C 70.621094 127.015625 69.710938 125.804688 68.957031 124.59375 C 68.199219 123.304688 67.441406 121.867188 66.609375 120.128906 C 60.707031 127.089844 53.289062 130.570312 44.359375 130.570312 C 38 130.570312 32.929688 128.753906 29.222656 125.121094 C 25.515625 121.488281 23.621094 116.644531 23.621094 110.589844 C 23.621094 104.160156 25.894531 98.9375 30.507812 95 C 35.125 91.066406 41.257812 89.097656 49.050781 89.097656 C 51.625 89.097656 54.273438 89.324219 57.074219 89.703125 C 59.875 90.082031 62.75 90.6875 65.777344 91.367188 L 65.777344 85.84375 C 65.777344 80.089844 64.566406 76.082031 62.21875 73.734375 C 59.796875 71.386719 55.710938 70.253906 49.882812 70.253906 C 47.234375 70.253906 44.511719 70.554688 41.710938 71.238281 C 38.910156 71.917969 36.183594 72.75 33.535156 73.808594 C 32.324219 74.339844 31.417969 74.644531 30.886719 74.792969 C 30.359375 74.945312 29.980469 75.019531 29.675781 75.019531 C 28.617188 75.019531 28.085938 74.265625 28.085938 72.675781 L 28.085938 68.964844 C 28.085938 67.753906 28.238281 66.847656 28.617188 66.316406 C 28.996094 65.789062 29.675781 65.257812 30.734375 64.726562 C 33.386719 63.367188 36.5625 62.230469 40.273438 61.324219 C 43.980469 60.339844 47.917969 59.882812 52.078125 59.882812 C 61.085938 59.882812 67.667969 61.929688 71.90625 66.015625 C 76.070312 70.101562 78.1875 76.308594 78.1875 84.632812 L 78.1875 109.152344 Z M 47.613281 120.65625 C 50.109375 120.65625 52.683594 120.203125 55.410156 119.292969 C 58.132812 118.386719 60.554688 116.722656 62.597656 114.453125 C 63.808594 113.011719 64.71875 111.425781 65.171875 109.609375 C 65.625 107.792969 65.929688 105.597656 65.929688 103.023438 L 65.929688 99.84375 C 63.734375 99.316406 61.386719 98.859375 58.964844 98.558594 C 56.542969 98.253906 54.199219 98.105469 51.851562 98.105469 C 46.78125 98.105469 43.074219 99.089844 40.574219 101.132812 C 38.078125 103.175781 36.867188 106.050781 36.867188 109.835938 C 36.867188 113.390625 37.773438 116.039062 39.667969 117.855469 C 41.484375 119.75 44.132812 120.65625 47.613281 120.65625 Z M 108.386719 128.832031 C 107.023438 128.832031 106.117188 128.605469 105.511719 128.074219 C 104.90625 127.621094 104.375 126.558594 103.921875 125.121094 L 86.136719 66.621094 C 85.679688 65.105469 85.453125 64.121094 85.453125 63.59375 C 85.453125 62.382812 86.058594 61.699219 87.269531 61.699219 L 94.6875 61.699219 C 96.125 61.699219 97.109375 61.929688 97.640625 62.457031 C 98.246094 62.910156 98.699219 63.972656 99.152344 65.410156 L 111.867188 115.511719 L 123.675781 65.410156 C 124.050781 63.894531 124.507812 62.910156 125.113281 62.457031 C 125.71875 62.003906 126.777344 61.699219 128.140625 61.699219 L 134.195312 61.699219 C 135.632812 61.699219 136.617188 61.929688 137.222656 62.457031 C 137.828125 62.910156 138.355469 63.972656 138.660156 65.410156 L 150.617188 116.117188 L 163.710938 65.410156 C 164.164062 63.894531 164.695312 62.910156 165.222656 62.457031 C 165.828125 62.003906 166.8125 61.699219 168.175781 61.699219 L 175.214844 61.699219 C 176.425781 61.699219 177.105469 62.304688 177.105469 63.59375 C 177.105469 63.972656 177.03125 64.351562 176.953125 64.804688 C 176.878906 65.257812 176.726562 65.863281 176.425781 66.695312 L 158.183594 125.199219 C 157.730469 126.710938 157.199219 127.695312 156.597656 128.148438 C 155.988281 128.605469 155.007812 128.90625 153.71875 128.90625 L 147.210938 128.90625 C 145.773438 128.90625 144.789062 128.679688 144.183594 128.148438 C 143.578125 127.621094 143.046875 126.636719 142.746094 125.121094 L 131.015625 76.308594 L 119.359375 125.046875 C 118.980469 126.558594 118.527344 127.542969 117.921875 128.074219 C 117.316406 128.605469 116.257812 128.832031 114.894531 128.832031 Z M 205.636719 130.875 C 201.703125 130.875 197.765625 130.421875 193.984375 129.511719 C 190.199219 128.605469 187.246094 127.621094 185.277344 126.484375 C 184.066406 125.804688 183.234375 125.046875 182.933594 124.367188 C 182.628906 123.683594 182.480469 122.925781 182.480469 122.246094 L 182.480469 118.386719 C 182.480469 116.796875 183.085938 116.039062 184.21875 116.039062 C 184.675781 116.039062 185.128906 116.117188 185.582031 116.265625 C 186.035156 116.417969 186.71875 116.722656 187.472656 117.023438 C 190.046875 118.160156 192.847656 119.066406 195.800781 119.671875 C 198.828125 120.277344 201.777344 120.582031 204.804688 120.582031 C 209.574219 120.582031 213.28125 119.75 215.855469 118.082031 C 218.429688 116.417969 219.789062 113.996094 219.789062 110.894531 C 219.789062 108.773438 219.109375 107.035156 217.746094 105.597656 C 216.382812 104.160156 213.8125 102.871094 210.101562 101.660156 L 199.128906 98.253906 C 193.605469 96.515625 189.515625 93.941406 187.019531 90.535156 C 184.523438 87.207031 183.234375 83.496094 183.234375 79.5625 C 183.234375 76.382812 183.917969 73.582031 185.277344 71.160156 C 186.640625 68.738281 188.457031 66.621094 190.726562 64.957031 C 193 63.214844 195.570312 61.929688 198.597656 61.019531 C 201.625 60.113281 204.804688 59.734375 208.136719 59.734375 C 209.800781 59.734375 211.542969 59.808594 213.207031 60.035156 C 214.945312 60.261719 216.535156 60.566406 218.125 60.867188 C 219.640625 61.246094 221.078125 61.625 222.4375 62.078125 C 223.800781 62.535156 224.859375 62.988281 225.617188 63.441406 C 226.675781 64.046875 227.433594 64.652344 227.886719 65.332031 C 228.34375 65.9375 228.570312 66.773438 228.570312 67.832031 L 228.570312 71.386719 C 228.570312 72.976562 227.964844 73.808594 226.828125 73.808594 C 226.222656 73.808594 225.238281 73.507812 223.953125 72.902344 C 219.640625 70.933594 214.796875 69.949219 209.421875 69.949219 C 205.109375 69.949219 201.703125 70.632812 199.355469 72.070312 C 197.011719 73.507812 195.800781 75.703125 195.800781 78.804688 C 195.800781 80.925781 196.554688 82.742188 198.070312 84.179688 C 199.582031 85.617188 202.382812 87.054688 206.394531 88.339844 L 217.140625 91.746094 C 222.589844 93.488281 226.527344 95.910156 228.871094 99.011719 C 231.21875 102.113281 232.355469 105.671875 232.355469 109.609375 C 232.355469 112.863281 231.671875 115.8125 230.386719 118.386719 C 229.023438 120.960938 227.207031 123.230469 224.859375 125.046875 C 222.515625 126.9375 219.714844 128.300781 216.460938 129.285156 C 213.054688 130.34375 209.496094 130.875 205.636719 130.875 Z M 205.636719 130.875 "/>
<path style=" stroke:none;fill-rule:evenodd;fill:rgb(100%,60.000002%,0%);fill-opacity:1;" d="M 219.949219 167.65625 C 195.050781 186.046875 158.875 195.808594 127.769531 195.808594 C 84.175781 195.808594 44.898438 179.6875 15.230469 152.898438 C 12.882812 150.777344 15.003906 147.902344 17.804688 149.566406 C 49.894531 168.183594 89.472656 179.460938 130.417969 179.460938 C 158.042969 179.460938 188.390625 173.710938 216.316406 161.902344 C 220.480469 160.011719 224.039062 164.628906 219.949219 167.65625 Z M 219.949219 167.65625 "/>
<path style=" stroke:none;fill-rule:evenodd;fill:rgb(100%,60.000002%,0%);fill-opacity:1;" d="M 230.320312 155.847656 C 227.140625 151.761719 209.28125 153.882812 201.183594 154.863281 C 198.761719 155.167969 198.382812 153.046875 200.578125 151.460938 C 214.804688 141.46875 238.191406 144.34375 240.914062 147.675781 C 243.640625 151.082031 240.160156 174.464844 226.839844 185.667969 C 224.796875 187.410156 222.828125 186.5 223.734375 184.230469 C 226.761719 176.738281 233.5 159.859375 230.320312 155.847656 Z M 230.320312 155.847656 "/>
</g>
</svg>
