<?xml version="1.0" encoding="UTF-8"?>
<svg xmlns="http://www.w3.org/2000/svg" xmlns:xlink="http://www.w3.org/1999/xlink" width="256px" height="px" viewBox="0 0 256 256" version="1.1">
<g id="surface1">
<path style=" stroke:none;fill-rule:nonzero;fill:rgb(100%,100%,100%);fill-opacity:1;" d="M 202.355469 119.394531 L 197.046875 117.269531 C 172.085938 173.433594 72.785156 139.289062 66.8125 155.996094 C 65.816406 167.28125 121.039062 158.144531 160.515625 160.054688 C 172.554688 160.640625 178.59375 169.726562 173.480469 184.539062 L 183.550781 184.570312 C 195.164062 148.363281 232.234375 166.839844 233.78125 154.890625 C 231.238281 147.035156 191.179688 154.890625 202.355469 119.394531 Z M 202.355469 119.394531 "/>
<path style=" stroke:none;fill-rule:nonzero;fill:rgb(95.686275%,50.588238%,12.156863%);fill-opacity:1;" d="M 176.332031 178.347656 C 177.925781 173.039062 177.394531 167.726562 174.738281 164.539062 C 172.082031 161.351562 168.363281 159.226562 163.585938 158.699219 L 71.171875 157.632812 C 70.640625 157.632812 70.109375 157.101562 69.578125 157.101562 C 69.046875 156.574219 69.046875 156.042969 69.578125 155.511719 C 70.109375 154.449219 70.640625 153.917969 71.699219 153.917969 L 164.648438 152.855469 C 175.800781 152.324219 187.484375 143.292969 191.734375 132.671875 L 197.046875 118.863281 C 197.046875 118.332031 197.578125 117.800781 197.046875 117.269531 C 191.203125 90.183594 166.773438 70 138.089844 70 C 111.535156 70 88.695312 86.996094 80.730469 110.894531 C 75.417969 107.179688 69.046875 105.054688 61.609375 105.585938 C 48.863281 106.648438 38.773438 117.269531 37.179688 130.015625 C 36.648438 133.203125 37.179688 136.390625 37.710938 139.578125 C 16.996094 140.105469 0 157.101562 0 178.347656 C 0 180.472656 0 182.066406 0.53125 184.191406 C 0.53125 185.253906 1.59375 185.785156 2.125 185.785156 L 172.613281 185.785156 C 173.675781 185.785156 174.738281 185.253906 174.738281 184.191406 Z M 176.332031 178.347656 "/>
<path style=" stroke:none;fill-rule:nonzero;fill:rgb(98.039216%,67.843139%,24.705882%);fill-opacity:1;" d="M 205.542969 118.863281 L 202.886719 118.863281 C 202.355469 118.863281 201.824219 119.394531 201.292969 119.925781 L 197.578125 132.671875 C 195.984375 137.984375 196.515625 143.292969 199.171875 146.480469 C 201.824219 149.667969 205.542969 151.792969 210.324219 152.324219 L 229.976562 153.386719 C 230.507812 153.386719 231.039062 153.917969 231.570312 153.917969 C 232.097656 154.449219 232.097656 154.980469 231.570312 155.511719 C 231.039062 156.574219 230.507812 157.105469 229.445312 157.105469 L 209.261719 158.164062 C 198.109375 158.695312 186.421875 167.726562 182.175781 178.347656 L 181.113281 183.128906 C 180.582031 183.660156 181.113281 184.722656 182.175781 184.722656 L 252.28125 184.722656 C 253.34375 184.722656 253.875 184.191406 253.875 183.128906 C 254.9375 178.878906 256 174.101562 256 169.320312 C 256 141.699219 233.160156 118.863281 205.542969 118.863281 "/>
</g>
</svg>
