<?xml version="1.0" encoding="UTF-8"?>
<svg xmlns="http://www.w3.org/2000/svg" xmlns:xlink="http://www.w3.org/1999/xlink" width="256px" height="px" viewBox="0 0 256 256" version="1.1">
<g id="surface1">
<path style=" stroke:none;fill-rule:nonzero;fill:rgb(12.156863%,19.607843%,26.666668%);fill-opacity:1;" d="M 252.691406 191.292969 C 231.945312 202.867188 207.867188 209.289062 182.265625 208.765625 C 106.804688 207.246094 46.847656 146.089844 48.328125 72.199219 C 48.855469 47.105469 56.359375 23.816406 69.042969 4.003906 C 28.644531 26.558594 1.03125 68.742188 0.0273438 117.570312 C -1.464844 191.46875 58.539062 252.625 134.023438 254.148438 C 183.859375 255.160156 228.039062 229.894531 252.691406 191.292969 "/>
<path style=" stroke:none;fill-rule:nonzero;fill:rgb(24.313726%,58.431375%,74.509805%);fill-opacity:1;" d="M 180.945312 192.875 C 181.777344 192.890625 182.621094 192.90625 183.460938 192.90625 C 203.15625 192.90625 222.582031 188.027344 239.851562 178.847656 C 250.03125 161.398438 255.957031 141.148438 255.957031 119.460938 C 255.957031 54.324219 203.292969 1.5 138.316406 1.5 C 117.832031 1.5 98.578125 6.773438 81.8125 16.003906 C 70.980469 33.433594 65.011719 53.476562 64.574219 74.058594 C 63.289062 138.238281 115.488281 191.554688 180.945312 192.875 "/>
</g>
</svg>
