<?xml version="1.0" encoding="UTF-8"?>
<svg xmlns="http://www.w3.org/2000/svg" xmlns:xlink="http://www.w3.org/1999/xlink" width="256px" height="px" viewBox="0 0 256 256" version="1.1">
<g id="surface1">
<path style=" stroke:none;fill-rule:evenodd;fill:rgb(9.803922%,73.725492%,99.607843%);fill-opacity:1;" d="M 213.332031 128 C 213.332031 104.4375 194.230469 85.332031 170.667969 85.332031 C 147.101562 85.332031 128 104.4375 128 128 C 128 151.5625 147.101562 170.667969 170.667969 170.667969 C 194.230469 170.667969 213.332031 151.5625 213.332031 128 Z M 213.332031 128 "/>
<path style=" stroke:none;fill-rule:evenodd;fill:rgb(3.529412%,81.176472%,51.372552%);fill-opacity:1;" d="M 85.332031 256 C 108.898438 256 128 236.898438 128 213.332031 C 128 206.902344 128 192.679688 128 170.667969 C 108.832031 170.667969 94.609375 170.667969 85.332031 170.667969 C 61.769531 170.667969 42.667969 189.769531 42.667969 213.332031 C 42.667969 236.898438 61.769531 256 85.332031 256 Z M 85.332031 256 "/>
<path style=" stroke:none;fill-rule:evenodd;fill:rgb(63.529414%,34.901962%,100%);fill-opacity:1;" d="M 85.332031 170.667969 C 93.1875 170.667969 107.410156 170.667969 128 170.667969 L 128 85.332031 C 107.410156 85.332031 93.1875 85.332031 85.332031 85.332031 C 61.769531 85.332031 42.667969 104.4375 42.667969 128 C 42.667969 151.5625 61.769531 170.667969 85.332031 170.667969 Z M 85.332031 170.667969 "/>
<path style=" stroke:none;fill-rule:evenodd;fill:rgb(94.901961%,30.588236%,11.764706%);fill-opacity:1;" d="M 85.332031 85.332031 C 93.1875 85.332031 107.410156 85.332031 128 85.332031 L 128 0 C 107.410156 0 93.1875 0 85.332031 0 C 61.769531 0 42.667969 19.101562 42.667969 42.667969 C 42.667969 66.230469 61.769531 85.332031 85.332031 85.332031 Z M 85.332031 85.332031 "/>
<path style=" stroke:none;fill-rule:evenodd;fill:rgb(100%,44.705883%,38.431373%);fill-opacity:1;" d="M 170.667969 85.332031 L 128 85.332031 L 128 0 L 170.667969 0 C 194.230469 0 213.332031 19.101562 213.332031 42.667969 C 213.332031 66.230469 194.230469 85.332031 170.667969 85.332031 Z M 170.667969 85.332031 "/>
</g>
</svg>
