<?xml version="1.0" encoding="UTF-8"?>
<svg xmlns="http://www.w3.org/2000/svg" xmlns:xlink="http://www.w3.org/1999/xlink" width="256px" height="px" viewBox="0 0 256 256" version="1.1">
<g id="surface1">
<path style=" stroke:none;fill-rule:evenodd;fill:rgb(14.117648%,16.078432%,18.431373%);fill-opacity:1;" d="M 126.949219 16.546875 C 64.222656 16.546875 13.511719 67.628906 13.511719 130.828125 C 13.511719 181.34375 46.003906 224.105469 91.078125 239.238281 C 96.710938 240.378906 98.777344 236.78125 98.777344 233.753906 C 98.777344 231.105469 98.589844 222.023438 98.589844 212.5625 C 67.035156 219.375 60.464844 198.941406 60.464844 198.941406 C 55.394531 185.695312 47.878906 182.292969 47.878906 182.292969 C 37.550781 175.289062 48.632812 175.289062 48.632812 175.289062 C 60.089844 176.046875 66.101562 187.019531 66.101562 187.019531 C 76.238281 204.425781 92.578125 199.507812 99.152344 196.480469 C 100.089844 189.101562 103.097656 183.992188 106.292969 181.15625 C 81.121094 178.507812 54.644531 168.667969 54.644531 124.773438 C 54.644531 112.285156 59.148438 102.066406 66.285156 94.121094 C 65.160156 91.285156 61.214844 79.550781 67.414062 63.847656 C 67.414062 63.847656 76.992188 60.820312 98.589844 75.578125 C 107.835938 73.078125 117.371094 71.804688 126.949219 71.792969 C 136.527344 71.792969 146.292969 73.121094 155.308594 75.578125 C 176.90625 60.820312 186.484375 63.847656 186.484375 63.847656 C 192.683594 79.550781 188.738281 91.285156 187.613281 94.121094 C 194.9375 102.066406 199.257812 112.285156 199.257812 124.773438 C 199.257812 168.667969 172.777344 178.316406 147.421875 181.15625 C 151.554688 184.75 155.121094 191.558594 155.121094 202.347656 C 155.121094 217.671875 154.933594 229.96875 154.933594 233.753906 C 154.933594 236.78125 157 240.378906 162.632812 239.242188 C 207.710938 224.101562 240.199219 181.34375 240.199219 130.828125 C 240.386719 67.628906 189.492188 16.546875 126.949219 16.546875 Z M 126.949219 16.546875 "/>
</g>
</svg>
