<?xml version="1.0" encoding="UTF-8"?>
<svg xmlns="http://www.w3.org/2000/svg" xmlns:xlink="http://www.w3.org/1999/xlink" width="256px" height="px" viewBox="0 0 256 256" version="1.1">
<g id="surface1">
<path style=" stroke:none;fill-rule:nonzero;fill:rgb(91.764706%,26.274511%,20.784314%);fill-opacity:1;" d="M 170.25 81.820312 L 192.503906 59.566406 L 193.988281 50.195312 C 153.4375 13.324219 88.976562 17.503906 52.421875 58.917969 C 42.265625 70.421875 34.734375 84.761719 30.714844 99.574219 L 38.6875 98.449219 L 83.191406 91.109375 L 86.628906 87.597656 C 106.425781 65.855469 139.898438 62.929688 162.753906 81.429688 Z M 170.25 81.820312 "/>
<path style=" stroke:none;fill-rule:nonzero;fill:rgb(25.882354%,52.156866%,95.686275%);fill-opacity:1;" d="M 224.203125 98.917969 C 219.089844 80.082031 208.589844 63.148438 193.988281 50.195312 L 162.753906 81.429688 C 175.945312 92.203125 183.457031 108.4375 183.136719 125.464844 L 183.136719 131.007812 C 198.484375 131.007812 210.933594 143.453125 210.933594 158.804688 C 210.933594 174.15625 198.484375 186.289062 183.136719 186.289062 L 127.464844 186.289062 L 121.996094 192.222656 L 121.996094 225.5625 L 127.464844 230.796875 L 183.136719 230.796875 C 223.066406 231.105469 255.6875 199.300781 255.996094 159.371094 C 256.1875 135.167969 244.253906 112.476562 224.203125 98.917969 "/>
<path style=" stroke:none;fill-rule:nonzero;fill:rgb(20.392157%,65.882355%,32.549021%);fill-opacity:1;" d="M 71.871094 230.796875 L 127.464844 230.796875 L 127.464844 186.289062 L 71.871094 186.289062 C 67.910156 186.289062 64.074219 185.4375 60.472656 183.792969 L 52.585938 186.210938 L 30.175781 208.464844 L 28.222656 216.039062 C 40.789062 225.527344 56.125 230.863281 71.871094 230.796875 "/>
<path style=" stroke:none;fill-rule:nonzero;fill:rgb(98.431373%,73.725492%,1.960784%);fill-opacity:1;" d="M 71.871094 86.425781 C 31.9375 86.664062 -0.238281 119.226562 0 159.15625 C 0.132812 181.457031 10.546875 202.445312 28.222656 216.039062 L 60.472656 183.792969 C 46.480469 177.46875 40.261719 161.003906 46.585938 147.015625 C 52.90625 133.027344 69.371094 126.808594 83.359375 133.128906 C 89.523438 135.914062 94.460938 140.851562 97.246094 147.015625 L 129.496094 114.769531 C 115.773438 96.832031 94.453125 86.34375 71.871094 86.425781 "/>
</g>
</svg>
