<?xml version="1.0" encoding="UTF-8"?>
<svg xmlns="http://www.w3.org/2000/svg" xmlns:xlink="http://www.w3.org/1999/xlink" width="256px" height="px" viewBox="0 0 256 256" version="1.1">
<g id="surface1">
<path style=" stroke:none;fill-rule:nonzero;fill:rgb(97.254902%,67.058825%,0%);fill-opacity:1;" d="M 167.8125 50.035156 L 167.8125 203.636719 C 167.8125 220.835938 179.667969 230.398438 192.246094 230.398438 C 203.882812 230.398438 216.683594 222.253906 216.683594 203.636719 L 216.683594 51.199219 C 216.683594 35.453125 205.046875 25.601562 192.246094 25.601562 C 179.449219 25.601562 167.8125 36.472656 167.8125 50.035156 Z M 167.8125 50.035156 "/>
<path style=" stroke:none;fill-rule:nonzero;fill:rgb(89.019608%,45.09804%,0%);fill-opacity:1;" d="M 103.816406 128 L 103.816406 203.636719 C 103.816406 220.835938 115.671875 230.398438 128.253906 230.398438 C 139.886719 230.398438 152.6875 222.253906 152.6875 203.636719 L 152.6875 129.164062 C 152.6875 113.417969 141.050781 103.5625 128.253906 103.5625 C 115.453125 103.5625 103.816406 114.433594 103.816406 128 Z M 103.816406 128 "/>
<path style=" stroke:none;fill-rule:nonzero;fill:rgb(89.019608%,45.09804%,0%);fill-opacity:1;" d="M 88.691406 205.964844 C 88.691406 219.453125 77.746094 230.398438 64.257812 230.398438 C 50.765625 230.398438 39.820312 219.453125 39.820312 205.964844 C 39.820312 192.472656 50.765625 181.527344 64.257812 181.527344 C 77.746094 181.527344 88.691406 192.472656 88.691406 205.964844 Z M 88.691406 205.964844 "/>
</g>
</svg>
