<?xml version="1.0" encoding="UTF-8"?>
<svg xmlns="http://www.w3.org/2000/svg" xmlns:xlink="http://www.w3.org/1999/xlink" width="256px" height="px" viewBox="0 0 256 256" version="1.1">
<defs>
<linearGradient id="linear0" gradientUnits="userSpaceOnUse" x1="0" y1="0.10304" x2="0.95632" y2="0.72462" gradientTransform="matrix(405.257813,0,0,405.257812,-74.953125,-73.6875)">
<stop offset="0" style="stop-color:rgb(16.862745%,91.764706%,92.941176%);stop-opacity:1;"/>
<stop offset="1" style="stop-color:rgb(5.882353%,80%,80.784314%);stop-opacity:1;"/>
</linearGradient>
</defs>
<g id="surface1">
<path style=" stroke:none;fill-rule:nonzero;fill:url(#linear0);" d="M -41.710938 -73.6875 L 297.058594 -73.6875 C 315.421875 -73.6875 330.304688 -58.804688 330.304688 -40.445312 L 330.304688 298.328125 C 330.304688 316.6875 315.421875 331.570312 297.058594 331.570312 L -41.710938 331.570312 C -60.070312 331.570312 -74.953125 316.6875 -74.953125 298.328125 L -74.953125 -40.445312 C -74.953125 -58.804688 -60.070312 -73.6875 -41.710938 -73.6875 Z M -41.710938 -73.6875 "/>
<path style=" stroke:none;fill-rule:nonzero;fill:rgb(100%,100%,100%);fill-opacity:1;" d="M 233.855469 6.21875 C 244.96875 7.863281 252.644531 18.214844 251 29.335938 C 249.359375 40.460938 239.019531 48.152344 227.902344 46.507812 C 208.210938 43.589844 178.714844 74.234375 145.6875 137.238281 C 103.527344 217.675781 64.285156 256 22.972656 252.941406 C 11.761719 252.113281 3.355469 242.34375 4.183594 231.132812 C 5.011719 219.921875 14.761719 211.496094 25.972656 212.324219 C 46.375 213.835938 76.339844 181.886719 109.660156 118.316406 C 152.089844 37.367188 191.867188 0 233.855469 6.21875 Z M 233.855469 6.21875 "/>
</g>
</svg>
