<?xml version="1.0" encoding="UTF-8"?>
<svg xmlns="http://www.w3.org/2000/svg" xmlns:xlink="http://www.w3.org/1999/xlink" width="256px" height="px" viewBox="0 0 256 256" version="1.1">
<g id="surface1">
<path style=" stroke:none;fill-rule:nonzero;fill:rgb(38.82353%,35.686275%,100%);fill-opacity:1;" d="M 219.023438 14.222656 L 36.976562 14.222656 C 24.410156 14.222656 14.222656 24.410156 14.222656 36.976562 L 14.222656 219.023438 C 14.222656 231.589844 24.410156 241.777344 36.976562 241.777344 L 219.023438 241.777344 C 231.589844 241.777344 241.777344 231.589844 241.777344 219.023438 L 241.777344 36.976562 C 241.777344 24.410156 231.589844 14.222656 219.023438 14.222656 Z M 219.023438 14.222656 "/>
<path style=" stroke:none;fill-rule:evenodd;fill:rgb(100%,100%,100%);fill-opacity:1;" d="M 120.464844 103.054688 C 120.464844 97.636719 124.910156 95.554688 132.269531 95.554688 C 142.824219 95.554688 156.152344 98.75 166.707031 104.441406 L 166.707031 71.808594 C 155.179688 67.226562 143.792969 65.421875 132.269531 65.421875 C 104.078125 65.421875 85.332031 80.140625 85.332031 104.71875 C 85.332031 143.042969 138.101562 136.933594 138.101562 153.457031 C 138.101562 159.847656 132.546875 161.929688 124.769531 161.929688 C 113.246094 161.929688 98.523438 157.207031 86.859375 150.820312 L 86.859375 183.867188 C 99.773438 189.421875 112.828125 191.785156 124.769531 191.785156 C 153.652344 191.785156 173.511719 177.480469 173.511719 152.625 C 173.371094 111.246094 120.464844 118.605469 120.464844 103.054688 Z M 120.464844 103.054688 "/>
</g>
</svg>
