<?xml version="1.0" encoding="UTF-8"?>
<svg xmlns="http://www.w3.org/2000/svg" xmlns:xlink="http://www.w3.org/1999/xlink" width="256px" height="px" viewBox="0 0 256 256" version="1.1">
<g id="surface1">
<path style=" stroke:none;fill-rule:evenodd;fill:rgb(49.019608%,34.117648%,64.313728%);fill-opacity:1;" d="M 35.410156 69.6875 L 220.589844 69.6875 C 223.371094 69.6875 226.128906 70.238281 228.699219 71.300781 C 231.269531 72.367188 233.605469 73.929688 235.574219 75.898438 C 237.542969 77.867188 239.101562 80.203125 240.167969 82.773438 C 241.230469 85.347656 241.777344 88.101562 241.777344 90.886719 L 241.777344 161.535156 C 241.777344 164.316406 241.230469 167.070312 240.164062 169.640625 C 239.101562 172.210938 237.539062 174.546875 235.570312 176.515625 C 233.605469 178.480469 231.269531 180.042969 228.699219 181.105469 C 226.125 182.167969 223.371094 182.714844 220.589844 182.714844 L 154.175781 182.714844 L 163.265625 205.058594 L 123.144531 182.714844 L 35.382812 182.714844 C 29.769531 182.707031 24.390625 180.472656 20.421875 176.503906 C 16.453125 172.53125 14.222656 167.148438 14.222656 161.535156 L 14.222656 90.886719 C 14.222656 85.265625 16.453125 79.875 20.425781 75.902344 C 24.402344 71.925781 29.789062 69.691406 35.410156 69.6875 Z M 35.410156 69.6875 "/>
<path style=" stroke:none;fill-rule:nonzero;fill:rgb(100%,100%,100%);fill-opacity:1;" d="M 25.675781 88.878906 C 26.375 88.003906 27.261719 87.292969 28.265625 86.796875 C 29.273438 86.300781 30.375 86.03125 31.496094 86.003906 C 36.21875 85.675781 38.929688 87.902344 39.628906 92.6875 C 42.542969 112.082031 45.660156 128.550781 48.988281 142.082031 L 69.367188 103.324219 C 71.214844 99.828125 73.546875 97.976562 76.363281 97.773438 C 80.445312 97.484375 83 100.085938 84.019531 105.574219 C 85.9375 116.421875 88.886719 127.066406 92.824219 137.355469 C 95.269531 113.75 99.355469 96.683594 105.082031 86.15625 C 105.636719 84.976562 106.5 83.96875 107.582031 83.242188 C 108.664062 82.519531 109.925781 82.101562 111.226562 82.039062 C 113.347656 81.863281 115.449219 82.523438 117.09375 83.875 C 117.929688 84.507812 118.617188 85.316406 119.109375 86.246094 C 119.601562 87.171875 119.878906 88.199219 119.929688 89.246094 C 120.082031 90.796875 119.769531 92.351562 119.035156 93.726562 C 115.40625 100.460938 112.421875 111.65625 110.078125 127.316406 C 107.769531 142.433594 106.914062 154.257812 107.519531 162.789062 C 107.730469 164.878906 107.355469 166.988281 106.433594 168.878906 C 105.988281 169.832031 105.292969 170.648438 104.421875 171.238281 C 103.550781 171.828125 102.535156 172.175781 101.484375 172.238281 C 99.027344 172.414062 96.585938 171.261719 94.121094 168.789062 C 85.476562 159.921875 78.609375 146.730469 73.523438 129.214844 C 67.554688 141.15625 63.078125 150.085938 60.089844 156.007812 C 54.628906 166.515625 49.949219 171.90625 46.050781 172.175781 C 43.519531 172.351562 41.363281 170.226562 39.582031 165.796875 C 34.808594 153.636719 29.683594 130.109375 24.214844 95.210938 C 24 94.113281 24.019531 92.980469 24.269531 91.890625 C 24.519531 90.800781 25 89.773438 25.675781 88.878906 Z M 25.675781 88.878906 "/>
<path style=" stroke:none;fill-rule:nonzero;fill:rgb(100%,100%,100%);fill-opacity:1;" d="M 225.570312 103.496094 C 224.03125 100.722656 221.902344 98.320312 219.332031 96.464844 C 216.765625 94.605469 213.816406 93.339844 210.703125 92.75 C 209.042969 92.398438 207.347656 92.21875 205.652344 92.210938 C 196.742188 92.210938 189.464844 96.847656 183.820312 106.121094 C 179.007812 114.003906 176.503906 123.078125 176.589844 132.3125 C 176.589844 139.476562 178.085938 145.617188 181.070312 150.734375 C 182.605469 153.511719 184.734375 155.914062 187.304688 157.773438 C 189.875 159.628906 192.828125 160.894531 195.945312 161.480469 C 197.601562 161.839844 199.289062 162.023438 200.984375 162.027344 C 209.984375 162.027344 217.257812 157.390625 222.808594 148.121094 C 227.621094 140.179688 230.125 131.058594 230.046875 121.773438 C 230.046875 114.609375 228.554688 108.515625 225.570312 103.496094 Z M 213.835938 129.296875 C 212.566406 135.386719 210.207031 139.972656 206.761719 143.058594 C 204.035156 145.515625 201.53125 146.515625 199.257812 146.058594 C 196.984375 145.605469 195.160156 143.601562 193.785156 140.042969 C 192.734375 137.34375 192.179688 134.476562 192.148438 131.578125 C 192.136719 129.289062 192.367188 127 192.828125 124.753906 C 193.714844 120.78125 195.382812 117.027344 197.734375 113.703125 C 200.828125 109.160156 204.058594 107.253906 207.425781 107.980469 C 209.699219 108.441406 211.519531 110.441406 212.886719 113.980469 C 213.9375 116.679688 214.488281 119.542969 214.515625 122.4375 C 214.527344 124.742188 214.300781 127.039062 213.835938 129.296875 Z M 213.835938 129.296875 "/>
<path style=" stroke:none;fill-rule:nonzero;fill:rgb(100%,100%,100%);fill-opacity:1;" d="M 167.285156 103.496094 C 165.75 100.722656 163.621094 98.320312 161.050781 96.464844 C 158.484375 94.605469 155.535156 93.339844 152.421875 92.75 C 150.757812 92.398438 149.066406 92.21875 147.371094 92.210938 C 138.457031 92.210938 131.179688 96.847656 125.546875 106.121094 C 120.730469 114 118.222656 123.078125 118.308594 132.3125 C 118.308594 139.476562 119.800781 145.617188 122.785156 150.734375 C 124.320312 153.511719 126.449219 155.917969 129.019531 157.777344 C 131.589844 159.632812 134.542969 160.898438 137.660156 161.480469 C 139.320312 161.839844 141.007812 162.023438 142.703125 162.027344 C 151.707031 162.027344 158.984375 157.390625 164.535156 148.121094 C 169.363281 140.183594 171.890625 131.0625 171.835938 121.773438 C 171.835938 114.609375 170.34375 108.515625 167.359375 103.496094 Z M 155.554688 129.296875 C 154.28125 135.398438 151.917969 139.992188 148.460938 143.078125 C 145.726562 145.53125 143.226562 146.53125 140.957031 146.078125 C 138.6875 145.625 136.871094 143.613281 135.503906 140.042969 C 134.453125 137.34375 133.894531 134.476562 133.863281 131.578125 C 133.855469 129.289062 134.085938 127 134.546875 124.753906 C 135.441406 120.785156 137.105469 117.03125 139.453125 113.703125 C 142.535156 109.171875 145.761719 107.273438 149.144531 108 C 151.417969 108.460938 153.234375 110.460938 154.597656 114 C 155.648438 116.695312 156.203125 119.558594 156.234375 122.453125 C 156.246094 124.746094 156.015625 127.03125 155.554688 129.277344 Z M 155.554688 129.296875 "/>
</g>
</svg>
