<?xml version="1.0" encoding="UTF-8"?>
<svg xmlns="http://www.w3.org/2000/svg" xmlns:xlink="http://www.w3.org/1999/xlink" width="256px" height="px" viewBox="0 0 256 256" version="1.1">
<g id="surface1">
<path style=" stroke:none;fill-rule:nonzero;fill:rgb(0.784314%,54.901963%,69.01961%);fill-opacity:1;" d="M 240 128 C 240 66.144531 189.855469 16 128 16 C 66.144531 16 16 66.144531 16 128 C 16 189.855469 66.144531 240 128 240 C 189.855469 240 240 189.855469 240 128 Z M 240 128 "/>
<path style=" stroke:none;fill-rule:nonzero;fill:rgb(100%,100%,100%);fill-opacity:1;" d="M 51.644531 128 C 51.644531 158.257812 69.242188 184.320312 94.695312 196.707031 L 58.277344 96.929688 C 53.902344 106.703125 51.644531 117.292969 51.644531 128 Z M 128 204.355469 C 136.867188 204.355469 145.398438 202.800781 153.386719 200.023438 L 152.84375 199.007812 L 129.355469 134.703125 L 106.472656 201.242188 C 113.242188 203.273438 120.488281 204.355469 128 204.355469 Z M 138.492188 92.191406 L 166.109375 174.300781 L 173.761719 148.847656 C 177.007812 138.289062 179.511719 130.707031 179.511719 124.140625 C 179.511719 114.664062 176.128906 108.167969 173.285156 103.15625 C 169.359375 96.792969 165.773438 91.445312 165.773438 85.21875 C 165.773438 78.179688 171.050781 71.679688 178.632812 71.679688 L 179.582031 71.679688 C 165.511719 58.765625 147.097656 51.609375 128 51.644531 C 115.355469 51.640625 102.90625 54.78125 91.773438 60.785156 C 80.644531 66.789062 71.179688 75.460938 64.234375 86.03125 L 69.109375 86.167969 C 77.09375 86.167969 89.414062 85.152344 89.414062 85.152344 C 93.613281 84.949219 94.085938 90.972656 89.957031 91.445312 C 89.957031 91.445312 85.828125 91.988281 81.15625 92.191406 L 109.046875 174.910156 L 125.765625 124.820312 L 113.851562 92.191406 C 111.183594 92.042969 108.519531 91.816406 105.863281 91.511719 C 101.734375 91.242188 102.210938 84.949219 106.339844 85.152344 C 106.339844 85.152344 118.929688 86.167969 126.441406 86.167969 C 134.429688 86.167969 146.75 85.152344 146.75 85.152344 C 150.878906 84.949219 151.421875 90.972656 147.292969 91.445312 C 147.292969 91.445312 143.164062 91.921875 138.492188 92.191406 Z M 166.382812 194 C 177.933594 187.28125 187.519531 177.652344 194.183594 166.070312 C 200.847656 154.488281 204.355469 141.363281 204.355469 128 C 204.355469 114.730469 200.972656 102.277344 195.015625 91.378906 C 196.226562 103.367188 194.410156 115.472656 189.734375 126.578125 Z M 128 216 C 104.660156 216 82.277344 206.730469 65.773438 190.226562 C 49.269531 173.722656 40 151.339844 40 128 C 40 104.660156 49.269531 82.277344 65.773438 65.773438 C 82.277344 49.269531 104.660156 40 128 40 C 151.339844 40 173.722656 49.269531 190.226562 65.773438 C 206.730469 82.277344 216 104.660156 216 128 C 216 151.339844 206.730469 173.722656 190.226562 190.226562 C 173.722656 206.730469 151.339844 216 128 216 Z M 128 216 "/>
</g>
</svg>
